<svg width="308" height="308" viewBox="0 0 308 308" fill="none" xmlns="http://www.w3.org/2000/svg">
<g clip-path="url(#clip0_956_76)" filter="url(#filter0_d_956_76)">
<rect x="4" width="300" height="300" rx="74" fill="white"/>
<path d="M29.912 168V139.92H38.96L39.272 146.472L38.544 146.056C38.9253 144.6 39.4973 143.369 40.26 142.364C41.0573 141.359 41.9933 140.596 43.068 140.076C44.1773 139.556 45.3733 139.296 46.656 139.296C48.944 139.296 50.7813 139.989 52.168 141.376C53.5547 142.728 54.456 144.531 54.872 146.784L53.832 146.888C54.1787 145.224 54.7507 143.837 55.548 142.728C56.3453 141.584 57.2987 140.735 58.408 140.18C59.552 139.591 60.8 139.296 62.152 139.296C64.024 139.296 65.6707 139.695 67.092 140.492C68.5133 141.289 69.6227 142.485 70.42 144.08C71.252 145.64 71.668 147.599 71.668 149.956V168H61.58V152.92C61.58 150.944 61.3373 149.471 60.852 148.5C60.4013 147.529 59.5867 147.044 58.408 147.044C57.68 147.044 57.0733 147.269 56.588 147.72C56.1373 148.171 55.7907 148.847 55.548 149.748C55.3053 150.615 55.184 151.672 55.184 152.92V168H46.344V152.92C46.344 150.944 46.1187 149.471 45.668 148.5C45.2173 147.529 44.4027 147.044 43.224 147.044C42.496 147.044 41.8893 147.269 41.404 147.72C40.9533 148.171 40.6067 148.847 40.364 149.748C40.1213 150.615 40 151.672 40 152.92V168H29.912ZM83.0714 168.624C80.1248 168.624 77.8368 167.705 76.2074 165.868C74.6128 163.996 73.8154 161.379 73.8154 158.016V139.92H83.9034V155.728C83.9034 157.531 84.1461 158.848 84.6314 159.68C85.1168 160.477 85.8794 160.876 86.9194 160.876C88.1328 160.876 89.0514 160.443 89.6754 159.576C90.2994 158.675 90.6114 157.219 90.6114 155.208V139.92H100.699V168H91.6514L91.2874 159.16L92.4314 159.264C92.1541 162.419 91.2354 164.776 89.6754 166.336C88.1154 167.861 85.9141 168.624 83.0714 168.624ZM103.399 168V139.92H113.175L113.487 148.76L112.759 148.656C113.279 145.536 114.111 143.3 115.255 141.948C116.399 140.596 118.011 139.92 120.091 139.92H122.483V147.928H119.987C118.496 147.928 117.265 148.084 116.295 148.396C115.359 148.673 114.648 149.176 114.163 149.904C113.712 150.632 113.487 151.655 113.487 152.972V168H103.399ZM131.26 168.624C128.314 168.624 125.887 167.948 123.98 166.596C122.074 165.244 121.12 163.355 121.12 160.928C121.12 158.432 121.935 156.525 123.564 155.208C125.228 153.856 127.586 152.851 130.636 152.192L139.06 150.424C139.06 148.968 138.748 147.859 138.124 147.096C137.5 146.333 136.634 145.952 135.524 145.952C134.346 145.952 133.427 146.247 132.768 146.836C132.144 147.391 131.746 148.223 131.572 149.332L121.588 149.02C122.143 145.623 123.616 143.161 126.008 141.636C128.4 140.076 131.572 139.296 135.524 139.296C140.1 139.296 143.515 140.284 145.768 142.26C148.022 144.236 149.148 147.235 149.148 151.256V159.472C149.148 160.373 149.287 160.963 149.564 161.24C149.876 161.517 150.292 161.656 150.812 161.656H151.384V168C151.072 168.104 150.57 168.191 149.876 168.26C149.183 168.364 148.507 168.416 147.848 168.416C146.843 168.416 145.803 168.243 144.728 167.896C143.654 167.549 142.752 166.891 142.024 165.92C141.296 164.915 140.932 163.459 140.932 161.552L141.66 162.384C141.279 163.667 140.655 164.776 139.788 165.712C138.922 166.648 137.778 167.376 136.356 167.896C134.97 168.381 133.271 168.624 131.26 168.624ZM134.068 162.28C135.004 162.28 135.836 162.089 136.564 161.708C137.327 161.327 137.934 160.755 138.384 159.992C138.835 159.195 139.06 158.189 139.06 156.976V156.04L134.484 157.184C133.618 157.392 132.89 157.739 132.3 158.224C131.746 158.675 131.468 159.264 131.468 159.992C131.468 160.72 131.676 161.292 132.092 161.708C132.508 162.089 133.167 162.28 134.068 162.28ZM162.758 168C159.604 168 157.298 167.272 155.842 165.816C154.386 164.325 153.658 161.968 153.658 158.744V133.316H163.746V157.288C163.746 158.675 164.024 159.628 164.578 160.148C165.168 160.633 166.052 160.876 167.23 160.876H171.078V168H162.758ZM148.874 147.044V139.92H171.078V147.044H148.874ZM185.365 168.624C182.315 168.624 179.645 168.017 177.357 166.804C175.104 165.591 173.336 163.892 172.053 161.708C170.805 159.489 170.181 156.907 170.181 153.96C170.181 151.013 170.805 148.448 172.053 146.264C173.336 144.08 175.104 142.381 177.357 141.168C179.645 139.92 182.315 139.296 185.365 139.296C188.416 139.296 191.068 139.92 193.321 141.168C195.609 142.381 197.377 144.08 198.625 146.264C199.908 148.448 200.549 151.013 200.549 153.96C200.549 156.907 199.908 159.489 198.625 161.708C197.377 163.892 195.609 165.591 193.321 166.804C191.068 168.017 188.416 168.624 185.365 168.624ZM185.365 161.396C186.925 161.396 188.121 160.755 188.953 159.472C189.785 158.189 190.201 156.352 190.201 153.96C190.201 151.603 189.785 149.783 188.953 148.5C188.121 147.183 186.925 146.524 185.365 146.524C183.805 146.524 182.609 147.183 181.777 148.5C180.945 149.783 180.529 151.603 180.529 153.96C180.529 156.352 180.945 158.189 181.777 159.472C182.609 160.755 183.805 161.396 185.365 161.396ZM208.776 168L198.48 139.92H208.88L214.548 157.912L220.164 139.92H230.564L220.216 168H208.776Z" fill="black"/>
<path d="M227.773 168V158.64H237.965V168H227.773ZM248.301 168.624C245.354 168.624 242.928 167.948 241.021 166.596C239.114 165.244 238.161 163.355 238.161 160.928C238.161 158.432 238.976 156.525 240.605 155.208C242.269 153.856 244.626 152.851 247.677 152.192L256.101 150.424C256.101 148.968 255.789 147.859 255.165 147.096C254.541 146.333 253.674 145.952 252.565 145.952C251.386 145.952 250.468 146.247 249.809 146.836C249.185 147.391 248.786 148.223 248.613 149.332L238.629 149.02C239.184 145.623 240.657 143.161 243.049 141.636C245.441 140.076 248.613 139.296 252.565 139.296C257.141 139.296 260.556 140.284 262.809 142.26C265.062 144.236 266.189 147.235 266.189 151.256V159.472C266.189 160.373 266.328 160.963 266.605 161.24C266.917 161.517 267.333 161.656 267.853 161.656H268.425V168C268.113 168.104 267.61 168.191 266.917 168.26C266.224 168.364 265.548 168.416 264.889 168.416C263.884 168.416 262.844 168.243 261.769 167.896C260.694 167.549 259.793 166.891 259.065 165.92C258.337 164.915 257.973 163.459 257.973 161.552L258.701 162.384C258.32 163.667 257.696 164.776 256.829 165.712C255.962 166.648 254.818 167.376 253.397 167.896C252.01 168.381 250.312 168.624 248.301 168.624ZM251.109 162.28C252.045 162.28 252.877 162.089 253.605 161.708C254.368 161.327 254.974 160.755 255.425 159.992C255.876 159.195 256.101 158.189 256.101 156.976V156.04L251.525 157.184C250.658 157.392 249.93 157.739 249.341 158.224C248.786 158.675 248.509 159.264 248.509 159.992C248.509 160.72 248.717 161.292 249.133 161.708C249.549 162.089 250.208 162.28 251.109 162.28ZM268.281 168V139.92H278.369V168H268.281ZM268.125 137.112V130.04H278.525V137.112H268.125Z" fill="#C40000"/>
</g>
<defs>
<filter id="filter0_d_956_76" x="0" y="0" width="308" height="308" filterUnits="userSpaceOnUse" color-interpolation-filters="sRGB">
<feFlood flood-opacity="0" result="BackgroundImageFix"/>
<feColorMatrix in="SourceAlpha" type="matrix" values="0 0 0 0 0 0 0 0 0 0 0 0 0 0 0 0 0 0 127 0" result="hardAlpha"/>
<feOffset dy="4"/>
<feGaussianBlur stdDeviation="2"/>
<feComposite in2="hardAlpha" operator="out"/>
<feColorMatrix type="matrix" values="0 0 0 0 0 0 0 0 0 0 0 0 0 0 0 0 0 0 0.25 0"/>
<feBlend mode="normal" in2="BackgroundImageFix" result="effect1_dropShadow_956_76"/>
<feBlend mode="normal" in="SourceGraphic" in2="effect1_dropShadow_956_76" result="shape"/>
</filter>
<clipPath id="clip0_956_76">
<rect width="300" height="300" fill="white" transform="translate(4)"/>
</clipPath>
</defs>
</svg>
