<svg width="735" height="735" viewBox="0 0 735 735" fill="none" xmlns="http://www.w3.org/2000/svg">
<g clip-path="url(#clip0_956_76)" filter="url(#filter0_d_956_76)">
<rect x="4" width="727" height="727" rx="160" fill="white"/>
<path d="M61.168 409V339.88H83.44L84.208 356.008L82.416 354.984C83.3547 351.4 84.7627 348.371 86.64 345.896C88.6027 343.421 90.9067 341.544 93.552 340.264C96.2827 338.984 99.2267 338.344 102.384 338.344C108.016 338.344 112.539 340.051 115.952 343.464C119.365 346.792 121.584 351.229 122.608 356.776L120.048 357.032C120.901 352.936 122.309 349.523 124.272 346.792C126.235 343.976 128.581 341.885 131.312 340.52C134.128 339.069 137.2 338.344 140.528 338.344C145.136 338.344 149.189 339.325 152.688 341.288C156.187 343.251 158.917 346.195 160.88 350.12C162.928 353.96 163.952 358.781 163.952 364.584V409H139.12V371.88C139.12 367.016 138.523 363.389 137.328 361C136.219 358.611 134.213 357.416 131.312 357.416C129.52 357.416 128.027 357.971 126.832 359.08C125.723 360.189 124.869 361.853 124.272 364.072C123.675 366.205 123.376 368.808 123.376 371.88V409H101.616V371.88C101.616 367.016 101.061 363.389 99.952 361C98.8427 358.611 96.8373 357.416 93.936 357.416C92.144 357.416 90.6507 357.971 89.456 359.08C88.3467 360.189 87.4933 361.853 86.896 364.072C86.2987 366.205 86 368.808 86 371.88V409H61.168ZM192.022 410.536C184.769 410.536 179.137 408.275 175.126 403.752C171.201 399.144 169.238 392.701 169.238 384.424V339.88H194.07V378.792C194.07 383.229 194.667 386.472 195.862 388.52C197.057 390.483 198.934 391.464 201.494 391.464C204.481 391.464 206.742 390.397 208.278 388.264C209.814 386.045 210.582 382.461 210.582 377.512V339.88H235.414V409H213.142L212.246 387.24L215.062 387.496C214.379 395.261 212.118 401.064 208.278 404.904C204.438 408.659 199.019 410.536 192.022 410.536ZM242.058 409V339.88H266.122L266.89 361.64L265.098 361.384C266.378 353.704 268.426 348.2 271.242 344.872C274.058 341.544 278.026 339.88 283.146 339.88H289.034V359.592H282.89C279.221 359.592 276.191 359.976 273.802 360.744C271.498 361.427 269.749 362.664 268.554 364.456C267.445 366.248 266.89 368.765 266.89 372.008V409H242.058ZM310.641 410.536C303.388 410.536 297.414 408.872 292.721 405.544C288.028 402.216 285.681 397.565 285.681 391.592C285.681 385.448 287.686 380.755 291.697 377.512C295.793 374.184 301.596 371.709 309.105 370.088L329.841 365.736C329.841 362.152 329.073 359.421 327.537 357.544C326.001 355.667 323.868 354.728 321.137 354.728C318.236 354.728 315.974 355.453 314.353 356.904C312.817 358.269 311.836 360.317 311.409 363.048L286.833 362.28C288.198 353.917 291.825 347.859 297.713 344.104C303.601 340.264 311.409 338.344 321.137 338.344C332.401 338.344 340.806 340.776 346.353 345.64C351.9 350.504 354.673 357.885 354.673 367.784V388.008C354.673 390.227 355.014 391.677 355.697 392.36C356.465 393.043 357.489 393.384 358.769 393.384H360.177V409C359.409 409.256 358.172 409.469 356.465 409.64C354.758 409.896 353.094 410.024 351.473 410.024C348.998 410.024 346.438 409.597 343.793 408.744C341.148 407.891 338.929 406.269 337.137 403.88C335.345 401.405 334.449 397.821 334.449 393.128L336.241 395.176C335.302 398.333 333.766 401.064 331.633 403.368C329.5 405.672 326.684 407.464 323.185 408.744C319.772 409.939 315.59 410.536 310.641 410.536ZM317.553 394.92C319.857 394.92 321.905 394.451 323.697 393.512C325.574 392.573 327.068 391.165 328.177 389.288C329.286 387.325 329.841 384.851 329.841 381.864V379.56L318.577 382.376C316.444 382.888 314.652 383.741 313.201 384.936C311.836 386.045 311.153 387.496 311.153 389.288C311.153 391.08 311.665 392.488 312.689 393.512C313.713 394.451 315.334 394.92 317.553 394.92ZM388.174 409C380.409 409 374.734 407.208 371.15 403.624C367.566 399.955 365.774 394.152 365.774 386.216V323.624H390.606V382.632C390.606 386.045 391.289 388.392 392.654 389.672C394.105 390.867 396.281 391.464 399.182 391.464H408.654V409H388.174ZM353.998 357.416V339.88H408.654V357.416H353.998ZM443.822 410.536C436.313 410.536 429.742 409.043 424.11 406.056C418.563 403.069 414.211 398.888 411.054 393.512C407.982 388.051 406.446 381.693 406.446 374.44C406.446 367.187 407.982 360.872 411.054 355.496C414.211 350.12 418.563 345.939 424.11 342.952C429.742 339.88 436.313 338.344 443.822 338.344C451.331 338.344 457.859 339.88 463.406 342.952C469.038 345.939 473.39 350.12 476.462 355.496C479.619 360.872 481.198 367.187 481.198 374.44C481.198 381.693 479.619 388.051 476.462 393.512C473.39 398.888 469.038 403.069 463.406 406.056C457.859 409.043 451.331 410.536 443.822 410.536ZM443.822 392.744C447.662 392.744 450.606 391.165 452.654 388.008C454.702 384.851 455.726 380.328 455.726 374.44C455.726 368.637 454.702 364.157 452.654 361C450.606 357.757 447.662 356.136 443.822 356.136C439.982 356.136 437.038 357.757 434.99 361C432.942 364.157 431.918 368.637 431.918 374.44C431.918 380.328 432.942 384.851 434.99 388.008C437.038 391.165 439.982 392.744 443.822 392.744ZM501.449 409L476.105 339.88H501.705L515.657 384.168L529.481 339.88H555.081L529.609 409H501.449Z" fill="black"/>
<path d="M548.211 409V385.96H573.299V409H548.211ZM598.741 410.536C591.488 410.536 585.514 408.872 580.821 405.544C576.128 402.216 573.781 397.565 573.781 391.592C573.781 385.448 575.786 380.755 579.797 377.512C583.893 374.184 589.696 371.709 597.205 370.088L617.941 365.736C617.941 362.152 617.173 359.421 615.637 357.544C614.101 355.667 611.968 354.728 609.237 354.728C606.336 354.728 604.074 355.453 602.453 356.904C600.917 358.269 599.936 360.317 599.509 363.048L574.933 362.28C576.298 353.917 579.925 347.859 585.813 344.104C591.701 340.264 599.509 338.344 609.237 338.344C620.501 338.344 628.906 340.776 634.453 345.64C640 350.504 642.773 357.885 642.773 367.784V388.008C642.773 390.227 643.114 391.677 643.797 392.36C644.565 393.043 645.589 393.384 646.869 393.384H648.277V409C647.509 409.256 646.272 409.469 644.565 409.64C642.858 409.896 641.194 410.024 639.573 410.024C637.098 410.024 634.538 409.597 631.893 408.744C629.248 407.891 627.029 406.269 625.237 403.88C623.445 401.405 622.549 397.821 622.549 393.128L624.341 395.176C623.402 398.333 621.866 401.064 619.733 403.368C617.6 405.672 614.784 407.464 611.285 408.744C607.872 409.939 603.69 410.536 598.741 410.536ZM605.653 394.92C607.957 394.92 610.005 394.451 611.797 393.512C613.674 392.573 615.168 391.165 616.277 389.288C617.386 387.325 617.941 384.851 617.941 381.864V379.56L606.677 382.376C604.544 382.888 602.752 383.741 601.301 384.936C599.936 386.045 599.253 387.496 599.253 389.288C599.253 391.08 599.765 392.488 600.789 393.512C601.813 394.451 603.434 394.92 605.653 394.92ZM647.923 409V339.88H672.755V409H647.923ZM647.539 332.968V315.56H673.139V332.968H647.539Z" fill="#C40000"/>
</g>
<defs>
<filter id="filter0_d_956_76" x="0" y="0" width="735" height="735" filterUnits="userSpaceOnUse" color-interpolation-filters="sRGB">
<feFlood flood-opacity="0" result="BackgroundImageFix"/>
<feColorMatrix in="SourceAlpha" type="matrix" values="0 0 0 0 0 0 0 0 0 0 0 0 0 0 0 0 0 0 127 0" result="hardAlpha"/>
<feOffset dy="4"/>
<feGaussianBlur stdDeviation="2"/>
<feComposite in2="hardAlpha" operator="out"/>
<feColorMatrix type="matrix" values="0 0 0 0 0 0 0 0 0 0 0 0 0 0 0 0 0 0 0.25 0"/>
<feBlend mode="normal" in2="BackgroundImageFix" result="effect1_dropShadow_956_76"/>
<feBlend mode="normal" in="SourceGraphic" in2="effect1_dropShadow_956_76" result="shape"/>
</filter>
<clipPath id="clip0_956_76">
<rect width="727" height="727" fill="white" transform="translate(4)"/>
</clipPath>
</defs>
</svg>
